<?xml version="1.0" encoding="UTF-8"?>
<svg id="Capa_1" data-name="Capa 1" xmlns="http://www.w3.org/2000/svg" viewBox="0 0 1906.5 530.13">
  <defs>
    <style>
      .cls-1, .cls-2 {
        fill: #f9f9f9;
      }

      .cls-2 {
        font-family: ArialNarrow-BoldItalic, 'Arial Narrow';
        font-size: 189.95px;
        font-style: italic;
        font-weight: 700;
      }
    </style>
  </defs>
  <g>
    <path class="cls-1" d="M1319.05,162.18c-13.41,7.54-26.33,16.42-40.3,22.39-67.26,28.74-136.16,51.21-208.43,58.6-44.79,4.58-89.94,12.55-134.52,10.12-63-3.43-125.66-14.7-188.39-23.27-94.8-12.95-189.25-30.3-284.37-38.72-112.29-9.95-221.88,14.1-328.47,51.37-37.48,13.1-72.62,34.54-108.07,53.83-6.84,3.72-12.31,14.52-14.55,23.24-3.09,12.06-2.52,25.23-3.63,39.37-15.21-30.31-9.04-58.01,13.95-76.54,101.81-82.09,218.24-119.31,342.09-134.54,20.08-2.47,189.35-.49,253.36,9.57,142.55,22.41,283.81,56.81,429.13,50.91,88.06-3.58,174.87-15.21,257.91-49.94,3.43-1.44,7.24-1.8,10.88-2.67,1.13,2.1,2.26,4.2,3.39,6.31Z"/>
    <path class="cls-1" d="M628.75,107.78c26.68-10.56,48.6-20.66,71.29-27.89,42.81-13.64,86.1-25.49,129.11-38.36,21.52-6.44,42.58-15.12,64.37-20.01,131.59-29.53,263.64-28.83,394.34,3.15,60.5,14.8,119.49,38.41,177.81,62.02,105.68,42.77,213.81,58.98,325.62,43.64,18.51-2.54,36.76-8.43,54.74-14.21,14.5-4.66,24.3-1.63,30.13,14.3,26.98,73.79,40.92,148.97,20.77,227.82-1.78,6.95-4.76,13.54-11.87,19.22,1.04-9.16,1.56-18.44,3.19-27.48,11.66-64.88-2.36-125.47-24.91-184.89-7.06-18.6-18.95-12.05-31.4-10.2-54.12,8.08-108.49,22.13-162.51,20.89-55.72-1.28-112.18-13.35-166.45-28.6-80.7-22.67-159.07-55.2-239.74-78.05-68.32-19.35-138.92-22.98-209.86-23.51-136.95-1.02-269.09,30.2-401.18,63.6-3.81,.96-7.65,2.05-11.52,2.33-2.1,.16-4.3-1.26-11.93-3.77Z"/>
  </g>
  <g>
    <path class="cls-1" d="M834.73,478.68h-43.24l19.5-108.27c2.45-13.47,8.57-24.98,18.37-34.53,9.86-9.55,20.54-14.32,32.03-14.32h36.27c14.45,0,24.56,7,30.34,20.99,10.8-13.99,23.4-20.99,37.78-20.99h36.37c11.43,0,20.32,4.77,26.66,14.32,6.41,9.55,8.39,21.06,5.94,34.53l-19.5,108.27h-43.15l17.15-95.16c1-14.81-5.65-22.21-19.97-22.21s-23.62,7.4-28.08,22.21l-17.15,95.16h-42.3l17.15-95.16c1.13-14.81-5.34-22.21-19.41-22.21s-23.33,7.4-27.61,22.21l-17.15,95.16Z"/>
    <path class="cls-1" d="M1179.37,445.04c-1.88,10.22-6.25,18.39-13.1,24.54-6.85,6.07-15.07,9.11-24.68,9.11h-72.92c-9.48,0-16.61-2.93-21.39-8.77-4.77-5.92-6.31-13.7-4.62-23.32l.09-.44c1.76-9.62,6.09-17.4,13-23.32,6.91-5.92,18.25-8.88,34.01-8.88h35.24c6.28,0,11.62,1.41,16.02,4.22l.38-2c.69-3.78-.32-7.11-3.01-9.99-2.83-3.18-6.53-4.77-11.12-4.77h-65.95l5.56-30.98h94.22c8.61,0,15.42,3.55,20.44,10.66,5.03,7.03,6.66,15.4,4.9,25.1l-7.07,38.86Zm-51.35,7.77c1.88,0,3.64-.8,5.28-2.39,1.63-1.59,2.64-3.5,3.01-5.72,.44-2.29,.13-4.22-.94-5.77s-2.54-2.33-4.43-2.33h-36.56c-1.82,.07-3.49,.85-4.99,2.33-1.7,1.63-2.73,3.55-3.11,5.77s-.03,4.11,1.04,5.66c1,1.55,2.39,2.37,4.15,2.44h36.56Z"/>
    <path class="cls-1" d="M1319.19,370.42c8.73,0,15.55,3.66,20.44,10.99s6.44,16.14,4.62,26.43l-12.81,70.84h-43.24l10.36-57.52c1-5.48,.22-10.14-2.36-13.99s-6.19-5.77-10.83-5.77h-12.15c-6.34,0-11.9,2.63-16.68,7.88-4.77,5.26-7.82,11.59-9.14,18.99l-9.14,50.41h-43.24l11.97-66.4h.09c2.7-11.7,8.42-21.58,17.15-29.65,8.73-8.14,18.12-12.21,28.17-12.21h66.8Z"/>
    <path class="cls-1" d="M1473.98,370.42c10.43,0,18.56,4.37,24.4,13.1,5.84,8.66,7.6,19.47,5.28,32.42l-3.39,19.1h-93.27l-.19,.67c-.44,2.52-.47,4.96-.09,7.33,.88,3.18,3.61,4.77,8.2,4.77h82.91l-5.56,30.87h-104.58c-8.79,0-15.64-3.66-20.54-10.99-4.84-7.26-6.31-16.06-4.43-26.43l6.03-33.42c1.82-10.29,6.47-19.1,13.94-26.43,7.54-7.33,15.7-10.99,24.5-10.99h66.8Zm-11.49,43.08l-.28-4c-.19-2.29-.82-4.22-1.88-5.77-1.07-1.55-2.54-2.33-4.43-2.33h-36.56c-1.76,.07-3.42,.85-4.99,2.33-1.63,1.63-2.67,3.55-3.11,5.77l-.66,4h51.91Z"/>
    <path class="cls-1" d="M1538.61,370.42h43.15l-21.58,119.7c-1.88,10.37-6.6,19.21-14.13,26.54-7.48,7.26-15.61,10.88-24.4,10.88h-51.25l6.6-36.42h22.99c4.65,0,8.95-1.96,12.91-5.89,4.08-3.85,6.6-8.51,7.54-13.99l18.18-100.83Zm8.67-48.86h43.34l-6.41,35.53h-43.34l6.41-35.53Z"/>
    <path class="cls-1" d="M1728.27,445.04c-1.88,10.22-6.25,18.39-13.1,24.54-6.85,6.07-15.07,9.11-24.68,9.11h-72.92c-9.48,0-16.61-2.93-21.39-8.77-4.77-5.92-6.31-13.7-4.62-23.32l.09-.44c1.76-9.62,6.09-17.4,13-23.32s18.25-8.88,34.01-8.88h35.24c6.28,0,11.62,1.41,16.02,4.22l.38-2c.69-3.78-.32-7.11-3.01-9.99-2.83-3.18-6.53-4.77-11.12-4.77h-65.95l5.56-30.98h94.22c8.61,0,15.42,3.55,20.44,10.66,5.03,7.03,6.66,15.4,4.9,25.1l-7.07,38.86Zm-51.35,7.77c1.88,0,3.64-.8,5.28-2.39,1.63-1.59,2.64-3.5,3.01-5.72,.44-2.29,.13-4.22-.94-5.77s-2.54-2.33-4.43-2.33h-36.56c-1.82,.07-3.49,.85-4.99,2.33-1.7,1.63-2.73,3.55-3.11,5.77s-.03,4.11,1.04,5.66c1,1.55,2.39,2.37,4.15,2.44h36.56Z"/>
    <path class="cls-1" d="M1756.72,407.5c1.88-10.22,6.53-18.95,13.94-26.21,7.48-7.26,15.55-10.88,24.21-10.88h78.1l-5.56,30.98h-49.84c-4.52,0-8.76,1.89-12.72,5.66-3.9,3.78-6.31,8.37-7.25,13.77l-10.46,57.85h-43.24l12.81-71.18Z"/>
  </g>
  <text class="cls-2" transform="translate(48.24 471.88) scale(.93 1)"><tspan x="0" y="0">Academia</tspan></text>
</svg>